<svg xmlns="http://www.w3.org/2000/svg" xmlns:xlink="http://www.w3.org/1999/xlink" width="400" height="400" viewBox="0 0 400 400">
  <defs>
    <clipPath id="clip-Web">
      <rect width="400" height="400"/>
    </clipPath>
  </defs>
  <g id="Web" clip-path="url(#clip-Web)">
    <rect width="400" height="400" fill="#fff"/>
    <g id="Group_2279" data-name="Group 2279" transform="translate(21.649 20.089)">
      <circle id="Ellipse_178" data-name="Ellipse 178" cx="178.5" cy="178.5" r="178.5" transform="translate(0.351 -0.089)" fill="#ceead6"/>
      <path id="Icon_ionic-ios-globe" data-name="Icon ionic-ios-globe" d="M104.091,3.375h-.339a100.716,100.716,0,0,0,.048,201.432h.339a100.716,100.716,0,1,0-.048-201.432Zm87.255,93.937H153.772a190.684,190.684,0,0,0-4.745-36.9,147.509,147.509,0,0,0,24.065-10.168A86.75,86.75,0,0,1,191.346,97.312Zm-94.034,0H67.388a172.11,172.11,0,0,1,4.261-33.459,147.315,147.315,0,0,0,25.663,3.438Zm0,13.558v29.973a147.937,147.937,0,0,0-25.663,3.438,172.089,172.089,0,0,1-4.261-33.411Zm13.558,0h29.682a171.1,171.1,0,0,1-4.261,33.362,144.531,144.531,0,0,0-25.421-3.389Zm0-13.558V67.291A147.944,147.944,0,0,0,136.291,63.9a171.6,171.6,0,0,1,4.261,33.411Zm52.973-57.088a134.519,134.519,0,0,1-18.4,7.505,99.976,99.976,0,0,0-12.832-26.389A87.622,87.622,0,0,1,163.843,40.223ZM132.66,51.215a136.274,136.274,0,0,1-21.79,2.905V18.579C119.1,23.034,127.14,34.994,132.66,51.215ZM97.312,18.386V54.072a133.923,133.923,0,0,1-22.032-2.954C80.9,34.752,89.032,22.792,97.312,18.386Zm-22.08,3.1A100.767,100.767,0,0,0,62.5,47.68a137.543,137.543,0,0,1-18.158-7.457A86.311,86.311,0,0,1,75.232,21.484ZM35.091,50.3A144.586,144.586,0,0,0,58.914,60.367a183,183,0,0,0-4.745,36.9H16.885A86.3,86.3,0,0,1,35.091,50.3ZM16.836,110.87H54.121a190.194,190.194,0,0,0,4.745,36.9,153.41,153.41,0,0,0-23.823,10.072A86.762,86.762,0,0,1,16.836,110.87Zm27.455,57.088A135.514,135.514,0,0,1,62.5,160.5a101.126,101.126,0,0,0,12.735,26.244A88.458,88.458,0,0,1,44.291,167.958Zm30.99-10.943a134.629,134.629,0,0,1,22.032-2.954V189.8C88.984,185.39,80.9,173.381,75.281,157.015ZM110.87,189.6V154.013a136.267,136.267,0,0,1,21.79,2.905C127.14,173.188,119.1,185.148,110.87,189.6Zm21.79-2.76a99.976,99.976,0,0,0,12.832-26.389,132.3,132.3,0,0,1,18.4,7.554A88.627,88.627,0,0,1,132.66,186.842Zm40.432-28.956a147.51,147.51,0,0,0-24.065-10.168,189.691,189.691,0,0,0,4.745-36.848h37.575A86.37,86.37,0,0,1,173.092,157.887Z" transform="translate(74.87 79.697)" fill="#33a952"/>
    </g>
  </g>
</svg>
